<svg width="393" height="364" viewBox="0 0 393 364" fill="none" xmlns="http://www.w3.org/2000/svg">
<path d="M196 0.00104114C87.5052 0.313358 -0.248645 70.0606 0.000529332 155.762C0.15925 210.869 36.6667 259.167 91.5517 286.544L73.2357 355.765C72.8464 356.918 72.8406 358.165 73.2193 359.321C73.5979 360.477 74.3407 361.48 75.3364 362.178C76.3321 362.877 77.5273 363.234 78.7431 363.197C79.9589 363.16 81.1301 362.731 82.0814 361.973L161.568 307.986C173.272 309.623 185.078 310.427 196.896 310.391C305.39 310.079 393.145 240.348 392.9 154.634C392.654 68.9189 304.495 -0.309569 196 0.00104114Z" fill="url(#paint0_linear_46_2008)"/>
<defs>
<linearGradient id="paint0_linear_46_2008" x1="196.45" y1="0" x2="196.45" y2="363.2" gradientUnits="userSpaceOnUse">
<stop stop-color="#B0EAB8"/>
<stop offset="1" stop-color="#00C1A3"/>
</linearGradient>
</defs>
</svg>
